<svg width="100%" height="100%" viewBox="0 0 24 24" version="1.1" xmlns="http://www.w3.org/2000/svg" xmlns:xlink="http://www.w3.org/1999/xlink" xml:space="preserve" xmlns:serif="http://www.serif.com/" style="fill-rule:evenodd;clip-rule:evenodd;stroke-linejoin:round;stroke-miterlimit:2;">
  <path d="M7.174,19.295l1.274,-0.108c0.094,0.62 0.313,1.086 0.657,1.399c0.344,0.312 0.758,0.468 1.243,0.468c0.584,0 1.078,-0.22 1.483,-0.661c0.404,-0.44 0.607,-1.024 0.607,-1.752c0,-0.692 -0.194,-1.238 -0.583,-1.638c-0.389,-0.4 -0.898,-0.6 -1.527,-0.6c-0.391,0 -0.744,0.089 -1.058,0.266c-0.315,0.177 -0.562,0.408 -0.741,0.691l-1.139,-0.148l0.957,-5.075l4.913,0l0,1.159l-3.943,0l-0.532,2.655c0.593,-0.413 1.215,-0.62 1.867,-0.62c0.863,0 1.591,0.299 2.184,0.896c0.593,0.598 0.89,1.366 0.89,2.305c0,0.894 -0.261,1.667 -0.782,2.318c-0.634,0.8 -1.498,1.2 -2.595,1.2c-0.899,0 -1.632,-0.252 -2.201,-0.755c-0.568,-0.503 -0.893,-1.17 -0.974,-2.002Zm8.02,-3.795l-0.31,-1.847l0,-1.651l1.382,0l0,1.651l-0.324,1.847l-0.748,0Zm-0.301,-9.98l-0.101,0.203l0.066,0l0.264,-0.21l-0.229,0.007Zm-1.113,1.208l0.064,-0.132l-2.611,1.68l-3.125,-0.239l0.027,0.094l3.1,0.308l2.546,-1.711Zm-0.081,0.141l-0.435,0.284l-1.414,3.007l-2.219,-0.408l0.462,-0.965l-0.112,-0.019l-0.495,0.954l-0.112,-0.019l0.518,-0.951l-0.296,-0.046l-0.683,1.197l3.153,0.64l1.631,-3.675Zm1.776,-3.472l-3.371,7.292l-3.153,-0.639l0.326,0.383l3.153,0.64l3.153,-7.421l-0.109,-0.256Zm-1.547,2.123l-0.723,0l-4.085,2.262l0.394,0.008l3.736,-2.064l0.572,0.009l0.105,-0.214Zm0.677,0.692l-0.27,0.621l1.575,-1.133l0,-0.383l-1.305,0.896Zm-1.665,1.528l0.251,-0.504l-1.932,1.324l-2.853,-0.301l0.109,0.256l2.827,0.384l1.597,-1.159Zm1.692,-1.625l1.209,-0.82l-0.891,0.021l-0.018,0.095l0.496,-0.016l-0.696,0.481l-0.099,0.239Zm-0.744,0.363l1.539,-3.203l-3.106,0.378l-1.522,2.815l-2.709,1.468l3.143,0.232l2.655,-1.69Zm-5.129,1.4l2.475,-1.409l1.269,-2.493l2.407,-0.261l-0.039,0.104l-2.314,0.251l-1.184,2.332l1.787,-0.983l0.806,-0.004l0.055,-0.097l-0.938,0l-1.368,0.736l0.924,-1.758l2.116,-0.221l-1.267,2.42l-2.363,1.508l-2.367,-0.125Zm-1.866,-2.358l-0.101,0.203l0.066,0l0.264,-0.21l-0.229,0.007Zm-1.113,1.208l0.064,-0.132l-2.611,1.68l-3.125,-0.239l0.027,0.094l3.1,0.308l2.546,-1.711Zm-0.081,0.141l-0.435,0.284l-1.414,3.007l-2.219,-0.408l0.462,-0.965l-0.112,-0.019l-0.495,0.954l-0.112,-0.019l0.518,-0.951l-0.296,-0.046l-0.683,1.197l3.153,0.64l1.631,-3.675Zm1.776,-3.472l-3.371,7.292l-3.153,-0.639l0.326,0.383l3.153,0.64l3.153,-7.421l-0.109,-0.256Zm-1.547,2.123l-0.723,0l-4.085,2.262l0.394,0.008l3.736,-2.064l0.572,0.009l0.105,-0.214Zm0.677,0.692l-0.27,0.621l1.575,-1.133l0,-0.383l-1.305,0.896Zm-1.665,1.528l0.251,-0.504l-1.932,1.324l-2.853,-0.301l0.109,0.256l2.827,0.384l1.597,-1.159Zm1.692,-1.625l1.209,-0.82l-0.891,0.021l-0.018,0.095l0.496,-0.016l-0.696,0.481l-0.099,0.239Zm-0.744,0.363l1.539,-3.203l-3.106,0.378l-1.522,2.815l-2.709,1.468l3.143,0.232l2.655,-1.69Zm-5.129,1.4l2.475,-1.409l1.269,-2.493l2.407,-0.261l-0.039,0.104l-2.314,0.251l-1.184,2.332l1.787,-0.983l0.806,-0.004l0.055,-0.097l-0.938,0l-1.368,0.736l0.924,-1.758l2.116,-0.221l-1.267,2.42l-2.363,1.508l-2.367,-0.125Zm22.134,-2.358l-0.101,0.203l0.066,0l0.264,-0.21l-0.229,0.007Zm-1.113,1.208l0.064,-0.132l-2.611,1.68l-3.125,-0.239l0.027,0.094l3.1,0.308l2.546,-1.711Zm-0.081,0.141l-0.435,0.284l-1.414,3.007l-2.219,-0.408l0.462,-0.965l-0.112,-0.019l-0.495,0.954l-0.112,-0.019l0.518,-0.951l-0.296,-0.046l-0.683,1.197l3.153,0.64l1.631,-3.675Zm1.776,-3.472l-3.371,7.292l-3.153,-0.639l0.326,0.383l3.153,0.64l3.153,-7.421l-0.109,-0.256Zm-1.547,2.123l-0.723,0l-4.085,2.262l0.394,0.008l3.736,-2.064l0.572,0.009l0.105,-0.214Zm0.677,0.692l-0.27,0.621l1.575,-1.133l0,-0.383l-1.305,0.896Zm-1.665,1.528l0.251,-0.504l-1.932,1.324l-2.853,-0.301l0.109,0.256l2.827,0.384l1.597,-1.159Zm1.692,-1.625l1.209,-0.82l-0.891,0.021l-0.018,0.095l0.496,-0.016l-0.696,0.481l-0.099,0.239Zm-0.744,0.363l1.539,-3.203l-3.106,0.378l-1.522,2.815l-2.709,1.468l3.143,0.232l2.655,-1.69Zm-5.129,1.4l2.475,-1.409l1.269,-2.493l2.407,-0.261l-0.039,0.104l-2.314,0.251l-1.184,2.332l1.787,-0.983l0.806,-0.004l0.055,-0.097l-0.938,0l-1.368,0.736l0.924,-1.758l2.116,-0.221l-1.267,2.42l-2.363,1.508l-2.367,-0.125Z" style="fill:#44739e;" />
</svg>
