<svg width="100%" height="100%" viewBox="0 0 100 100" version="1.1" xmlns="http://www.w3.org/2000/svg" xmlns:xlink="http://www.w3.org/1999/xlink" xml:space="preserve" xmlns:serif="http://www.serif.com/" style="fill-rule:evenodd;clip-rule:evenodd;stroke-linecap:round;stroke-linejoin:round;stroke-miterlimit:1.5;">
  <path d="M33.402,91.178l0,-28.757l-6.039,2.761l-1.093,-3.911l8.282,-3.796l3.451,0l0,33.703l-4.601,0Z" style="fill:#44739e;fill-rule:nonzero;" />
  <path d="M53.589,91.638c-1.265,0 -2.559,-0.134 -3.882,-0.403c-1.323,-0.268 -2.483,-0.671 -3.48,-1.208l1.035,-3.796c0.882,0.422 1.85,0.776 2.904,1.064c1.054,0.288 2.157,0.431 3.307,0.431c2.722,0 4.822,-0.613 6.298,-1.84c1.476,-1.227 2.214,-3.067 2.214,-5.521c0,-2.339 -0.776,-4.083 -2.329,-5.234c-1.553,-1.15 -3.499,-1.725 -5.838,-1.725c-0.997,0 -1.994,0.067 -2.991,0.201c-0.997,0.134 -2.013,0.297 -3.048,0.489l1.668,-16.621l16.219,-0.115l0,3.911l-12.48,0l-0.978,8.972c0.844,-0.153 1.898,-0.23 3.163,-0.23c1.304,0 2.636,0.173 3.997,0.518c1.361,0.345 2.607,0.92 3.738,1.725c1.131,0.805 2.042,1.86 2.732,3.163c0.69,1.304 1.035,2.895 1.035,4.774c0,2.186 -0.508,4.141 -1.524,5.866c-1.016,1.725 -2.521,3.087 -4.515,4.083c-1.994,0.997 -4.409,1.495 -7.247,1.495Z" style="fill:#44739e;fill-rule:nonzero;" />
  <path d="M74.294,66.562l-0.863,-12.48l4.774,0l-0.92,12.48l-2.991,0Z" style="fill:#44739e;fill-rule:nonzero;" />
  <path d="M28.722,23.001l-0.419,0.845l0.276,0l1.098,-0.874l-0.955,0.029Zm-4.638,5.033l0.266,-0.549l-10.88,7.001l-13.022,-0.996l0.112,0.393l12.917,1.283l10.607,-7.13Zm-0.337,0.588l-1.812,1.184l-5.89,12.529l-9.244,-1.698l1.925,-4.02l-0.469,-0.079l-2.062,3.975l-0.465,-0.081l2.16,-3.962l-1.235,-0.192l-2.844,4.989l13.139,2.666l6.796,-15.311Zm7.399,-14.465l-14.046,30.385l-13.139,-2.664l1.36,1.598l13.139,2.666l13.139,-30.919l-0.452,-1.066Zm-6.448,8.844l-3.012,0l-17.022,9.424l1.642,0.033l15.568,-8.6l2.385,0.037l0.437,-0.894Zm2.823,2.884l-1.126,2.588l6.563,-4.722l0,-1.598l-5.437,3.731Zm-6.938,6.366l1.047,-2.101l-8.049,5.517l-11.886,-1.253l0.454,1.066l11.779,1.6l6.655,-4.828Zm7.049,-6.77l5.035,-3.416l-3.714,0.087l-0.076,0.397l2.066,-0.068l-2.902,2.006l-0.411,0.994Zm-3.099,1.513l6.411,-13.347l-12.94,1.575l-6.342,11.73l-11.289,6.118l13.096,0.967l11.064,-7.043Zm-21.372,5.834l10.311,-5.871l5.287,-10.386l10.028,-1.089l-0.164,0.431l-9.64,1.047l-4.932,9.716l7.444,-4.097l3.36,-0.017l0.23,-0.404l-3.908,0l-5.698,3.068l3.849,-7.324l8.818,-0.919l-5.28,10.082l-9.844,6.283l-9.86,-0.52Z" style="fill:#44739e;fill-rule:nonzero;" />
  <path d="M62.055,23.001l-0.419,0.845l0.276,0l1.098,-0.874l-0.955,0.029Zm-4.638,5.033l0.266,-0.549l-10.88,7.001l-13.022,-0.996l0.112,0.393l12.917,1.283l10.607,-7.13Zm-0.337,0.588l-1.812,1.184l-5.89,12.529l-9.244,-1.698l1.925,-4.02l-0.469,-0.079l-2.062,3.975l-0.465,-0.081l2.16,-3.962l-1.235,-0.192l-2.844,4.989l13.139,2.666l6.796,-15.311Zm7.399,-14.465l-14.046,30.385l-13.139,-2.664l1.36,1.598l13.139,2.666l13.139,-30.919l-0.452,-1.066Zm-6.448,8.844l-3.012,0l-17.022,9.424l1.642,0.033l15.568,-8.6l2.385,0.037l0.437,-0.894Zm2.823,2.884l-1.126,2.588l6.563,-4.722l0,-1.598l-5.437,3.731Zm-6.938,6.366l1.047,-2.101l-8.049,5.517l-11.886,-1.253l0.454,1.066l11.779,1.6l6.655,-4.828Zm7.049,-6.77l5.035,-3.416l-3.714,0.087l-0.076,0.397l2.066,-0.068l-2.902,2.006l-0.411,0.994Zm-3.099,1.513l6.411,-13.347l-12.94,1.575l-6.342,11.73l-11.289,6.118l13.096,0.967l11.064,-7.043Zm-21.372,5.834l10.311,-5.871l5.287,-10.386l10.028,-1.089l-0.164,0.431l-9.64,1.047l-4.932,9.716l7.444,-4.097l3.36,-0.017l0.23,-0.404l-3.908,0l-5.698,3.068l3.849,-7.324l8.818,-0.919l-5.28,10.082l-9.844,6.283l-9.86,-0.52Z" style="fill:#44739e;fill-rule:nonzero;" />
  <path d="M95.389,23.001l-0.419,0.845l0.276,0l1.098,-0.874l-0.955,0.029Zm-4.638,5.033l0.266,-0.549l-10.88,7.001l-13.022,-0.996l0.112,0.393l12.917,1.283l10.607,-7.13Zm-0.337,0.588l-1.812,1.184l-5.89,12.529l-9.244,-1.698l1.925,-4.02l-0.469,-0.079l-2.062,3.975l-0.465,-0.081l2.16,-3.962l-1.235,-0.192l-2.844,4.989l13.139,2.666l6.796,-15.311Zm7.399,-14.465l-14.046,30.385l-13.139,-2.664l1.36,1.598l13.139,2.666l13.139,-30.919l-0.452,-1.066Zm-6.448,8.844l-3.012,0l-17.022,9.424l1.642,0.033l15.568,-8.6l2.385,0.037l0.437,-0.894Zm2.823,2.884l-1.126,2.588l6.563,-4.722l0,-1.598l-5.437,3.731Zm-6.938,6.366l1.047,-2.101l-8.049,5.517l-11.886,-1.253l0.454,1.066l11.779,1.6l6.655,-4.828Zm7.049,-6.77l5.035,-3.416l-3.714,0.087l-0.076,0.397l2.066,-0.068l-2.902,2.006l-0.411,0.994Zm-3.099,1.513l6.411,-13.347l-12.94,1.575l-6.342,11.73l-11.289,6.118l13.096,0.967l11.064,-7.043Zm-21.372,5.834l10.311,-5.871l5.287,-10.386l10.028,-1.089l-0.164,0.431l-9.64,1.047l-4.932,9.716l7.444,-4.097l3.36,-0.017l0.23,-0.404l-3.908,0l-5.698,3.068l3.849,-7.324l8.818,-0.919l-5.28,10.082l-9.844,6.283l-9.86,-0.52Z" style="fill:#44739e;fill-rule:nonzero;" />
  <path d="M75.512,10.002l14.453,38.329" style="fill:none;stroke:#44739f;stroke-width:1.04px;" />
  <path d="M89.521,9.841l-13.565,38.652" style="fill:none;stroke:#44739f;stroke-width:1.04px;" />
</svg>